<svg aria-hidden="true" style="width:0;height:0;position:absolute;overflow:hidden" xmlns="http://www.w3.org/2000/svg"><defs><symbol id="icon-search" viewBox="0 0 32 32"><path fill="none" stroke="#fff" style="stroke:var(--color1,#fff)" stroke-width="3.999" d="M24.081 13.04c0 6.098-4.943 11.041-11.041 11.041S1.999 19.138 1.999 13.04c0-6.098 4.943-11.041 11.041-11.041S24.081 6.942 24.081 13.04z"/><path fill="#fff" style="fill:var(--color1,#fff)" d="m20.095 22.914.02.04 8.458 8.438c.78.8 2.039.8 2.819 0 .8-.78.8-2.039 0-2.819l-8.438-8.458-.04-.02-1.4-1.42-2.839 2.839 1.42 1.4z"/></symbol><symbol id="icon-paper" viewBox="0 0 32 32"><path fill="#fff" style="fill:var(--color1,#fff)" d="M31.799 10.908a1.566 1.566 0 0 0-.948-.749l-3.561-1.01a.527.527 0 0 0-.287 1.013l3.561 1.01a.527.527 0 0 1 .363.65l-4.305 15.172a.523.523 0 0 1-.645.364l-4.242-1.253h2.149a1.58 1.58 0 0 0 1.578-1.578V5.154a1.58 1.58 0 0 0-1.578-1.578H8.114a1.58 1.58 0 0 0-1.578 1.578v19.374c0 .87.708 1.578 1.578 1.578h2.325l-4.412 1.252a.527.527 0 0 1-.65-.363L1.072 11.823a.527.527 0 0 1 .363-.65l3.679-1.044a.526.526 0 1 0-.287-1.013L1.148 10.16A1.581 1.581 0 0 0 .06 12.109l4.305 15.172c.115.406.381.742.749.948a1.57 1.57 0 0 0 1.2.14l7.98-2.264h3.728l7.663 2.264a1.567 1.567 0 0 0 1.2-.14c.368-.205.634-.542.749-.948l4.305-15.172a1.57 1.57 0 0 0-.14-1.2zM18.089 25.05H8.115a.527.527 0 0 1-.526-.526V5.15c0-.29.236-.526.526-.526h15.771c.29 0 .526.236.526.526v19.374c0 .29-.236.526-.526.526H18.09z"/></symbol><symbol id="icon-scissors" viewBox="0 0 32 32"><path fill="#fff" style="fill:var(--color1,#fff)" d="M27.69 25.071c-1.111-1.406-4.279-5.409-7.351-9.291l-.905-1.143 3.181-4.021c.244.033.491.051.742.051a5.364 5.364 0 0 0 4.233-2.041 5.27 5.27 0 0 0 1.109-3.929 5.288 5.288 0 0 0-2.023-3.562A5.355 5.355 0 0 0 23.363 0a5.364 5.364 0 0 0-4.233 2.041 5.263 5.263 0 0 0-1.108 3.928c.056.465.173.914.342 1.338L16 10.295l-2.364-2.987c.169-.425.285-.874.342-1.339a5.268 5.268 0 0 0-1.109-3.928A5.364 5.364 0 0 0 8.636 0a5.35 5.35 0 0 0-3.312 1.136A5.293 5.293 0 0 0 3.3 4.7a5.276 5.276 0 0 0 1.109 3.933 5.375 5.375 0 0 0 4.234 2.049c.254 0 .505-.019.753-.053l3.17 4.006L4.31 25.07c-1.118 1.414-1.347 3.043-.661 4.711.499 1.214 1.316 2.017 1.35 2.051a.59.59 0 0 0 .412.167l.038-.001a.592.592 0 0 0 .425-.223l10.127-12.799 10.126 12.799a.592.592 0 0 0 .425.223l.038.001c.153 0 .302-.06.412-.167a6.654 6.654 0 0 0 1.35-2.051c.686-1.668.457-3.297-.662-4.711zM20.057 2.774a4.19 4.19 0 0 1 3.307-1.593c.946 0 1.841.306 2.588.886a4.115 4.115 0 0 1 1.575 2.771 4.096 4.096 0 0 1-.862 3.054 4.19 4.19 0 0 1-3.306 1.592c-.289 0-.574-.029-.851-.085l-.041-.009a4.178 4.178 0 0 1-1.696-.792 4.113 4.113 0 0 1-1.575-2.772 4.094 4.094 0 0 1 .862-3.053zM8.643 9.502a4.198 4.198 0 0 1-3.307-1.601 4.115 4.115 0 0 1-.862-3.062A4.112 4.112 0 0 1 6.05 2.068a4.178 4.178 0 0 1 2.587-.886c1.301 0 2.506.583 3.307 1.595.689.871.995 1.957.862 3.055a4.152 4.152 0 0 1-.405 1.354 4.153 4.153 0 0 1-1.169 1.422 4.22 4.22 0 0 1-1.601.776c-.08 0-.16.017-.236.05a4.235 4.235 0 0 1-.75.068zm1.997.796a5.493 5.493 0 0 0 1.315-.757 5.39 5.39 0 0 0 1.066-1.106l2.226 2.813-1.928 2.437-2.679-3.386zM5.392 30.48c-.656-.878-1.669-2.764-.156-4.677l8.509-10.754a.557.557 0 0 0 .074-.094l5.163-6.525c.296.41.652.781 1.064 1.101.409.318.853.571 1.322.757l-5.8 7.33a.527.527 0 0 0-.063.08L5.392 30.479zm21.216 0-9.854-12.455 1.928-2.436.732.925 7.351 9.291c1.513 1.913.5 3.8-.156 4.677z"/><path fill="#fff" style="fill:var(--color1,#fff)" d="M16 15.408a.772.772 0 1 0 0-1.545.772.772 0 0 0 0 1.545zM11.933 5.726a3.251 3.251 0 0 0-.684-2.426 3.31 3.31 0 0 0-2.611-1.259 3.3 3.3 0 0 0-2.043.699 3.262 3.262 0 0 0-1.249 2.198 3.248 3.248 0 0 0 .684 2.424 3.305 3.305 0 0 0 2.611 1.254c.747 0 1.453-.237 2.042-.695a3.254 3.254 0 0 0 1.249-2.195zM9.959 6.988c-.38.295-.835.446-1.317.446a2.132 2.132 0 0 1-1.685-.806 2.088 2.088 0 0 1 .363-2.954 2.13 2.13 0 0 1 1.318-.451c.663 0 1.277.294 1.684.809.35.442.506.992.438 1.55a2.084 2.084 0 0 1-.801 1.406zM23.363 8.615c.747 0 1.453-.237 2.042-.695a3.254 3.254 0 0 0 1.249-2.195 3.248 3.248 0 0 0-.685-2.426 3.31 3.31 0 0 0-2.611-1.259 3.3 3.3 0 0 0-2.043.699 3.262 3.262 0 0 0-1.249 2.198 3.248 3.248 0 0 0 .684 2.424 3.305 3.305 0 0 0 2.611 1.254zM21.24 5.082c.068-.56.352-1.06.801-1.408a2.13 2.13 0 0 1 1.318-.451c.663 0 1.276.294 1.684.809.35.442.506.992.438 1.55a2.084 2.084 0 0 1-.801 1.406c-.38.295-.835.446-1.317.446a2.132 2.132 0 0 1-1.685-.806 2.065 2.065 0 0 1-.438-1.546z"/></symbol><symbol id="icon-stone" viewBox="0 0 32 32"><path fill="#fff" style="fill:var(--color1,#fff)" d="m19.858 6.806-5.95 6.037-1.683 5.426 1.096 2.295 1.276.58 2.074-3.443.706-.226 3.859 1.678 1.266-.812.279-2.731.714 3.352-.664.885.236.102.327.406.427 2.146 3.499-4.173.874.014 1.4 1.786-.591-3.265-1.878-6.44-7.267-3.619zm-12.132.75L5.88 10.812l-.288 1.726 1.624-.528.731.461.005.04 1.768 3.742.861-.284.684.292.245.513 1.22-3.932-.067-2.083-2.509-.033L8.296 9.24l2.129.681 2.656-.483 1.627.992 2.268-2.301a21.93 21.93 0 0 0-.536-.22l-4.974.633-.22-.016-3.519-.97zm15.583 2.276 2.941 4.126.132 3.907-1.58-3.731-4.083-3.775 2.59-.527zM6.921 13.29l-4.015 1.305-1.044 4.91 3.175.349.037-.446 2.354-2.294-.507-3.822zm3.543 3.903-2.277.751-1.978 1.927L7.621 21.8l3.583.109 1.031-1.01-1.771-3.706zm6.917 1.512-2.769 4.597-.002 3.571 6.079.764 2.765-1.221-1.104-5.55-4.969-2.16zm10.357.88-2.928 3.492.018.111 4.072.868 1.611-.933-2.773-3.538zm-8.649.993 2.452 1.428.838 3.166-1.676 1.49-2.813-.16 2.41-1.765.155-2.452-1.366-1.707zM4.191 23.943l-.548 1.782.822 3.031 5.69-.744.082-1.651-3.911-2-2.135-.418z"/></symbol><symbol id="icon-moon" viewBox="0 0 32 32"><path d="M21.444 19.688c-.113.006-.219.006-.331.006-1.819 0-3.531-.706-4.819-1.994s-1.994-3-1.994-4.819c0-1.037.231-2.037.662-2.944.194-.4.425-.781.694-1.137-.475.05-.931.15-1.375.287a7.223 7.223 0 0 0-5.044 6.888 7.218 7.218 0 0 0 13.519 3.519 6.561 6.561 0 0 1-1.313.194z"/></symbol><symbol id="icon-sun" viewBox="0 0 32 32"><path d="M15.982 24.061c-4.455 0-8.079-3.624-8.079-8.079s3.624-8.079 8.079-8.079 8.079 3.624 8.079 8.079-3.624 8.079-8.079 8.079zM13.752 6.361a.352.352 0 0 1-.326-.484l2.23-5.483a.351.351 0 0 1 .65 0l2.23 5.483a.352.352 0 0 1-.401.476 10.135 10.135 0 0 0-4.31 0 .316.316 0 0 1-.074.008zM15.982 31.788a.349.349 0 0 1-.325-.219l-2.23-5.483a.352.352 0 0 1 .401-.476c1.42.31 2.889.31 4.31 0a.353.353 0 0 1 .401.476l-2.23 5.483a.353.353 0 0 1-.326.219zM6.01 18.563a.334.334 0 0 1-.132-.026l-5.483-2.23a.353.353 0 0 1 0-.651l5.483-2.23a.353.353 0 0 1 .476.401c-.155.71-.234 1.435-.234 2.155s.079 1.445.234 2.155a.351.351 0 0 1-.344.427zM25.954 18.563a.35.35 0 0 1-.343-.427 10.128 10.128 0 0 0 0-4.31.351.351 0 0 1 .476-.401l5.483 2.23a.351.351 0 0 1 0 .65l-5.483 2.23a.36.36 0 0 1-.132.026zM7.354 10.859l-.03-.001a.352.352 0 0 1-.294-.213l-2.3-5.454a.35.35 0 0 1 .46-.46l5.454 2.3a.351.351 0 0 1 .053.619c-.612.393-1.18.85-1.689 1.359s-.966 1.077-1.359 1.689a.352.352 0 0 1-.295.162zM26.91 27.261a.367.367 0 0 1-.137-.027l-5.454-2.3a.352.352 0 0 1-.053-.62 10.118 10.118 0 0 0 3.048-3.048.352.352 0 0 1 .62.053l2.3 5.454a.35.35 0 0 1-.325.488zM24.61 10.859a.353.353 0 0 1-.296-.161 10.159 10.159 0 0 0-1.359-1.689 10.15 10.15 0 0 0-1.689-1.359.35.35 0 0 1 .053-.619l5.454-2.3a.35.35 0 0 1 .461.46l-2.3 5.454a.352.352 0 0 1-.294.213l-.03.001zM5.054 27.261a.351.351 0 0 1-.323-.488l2.3-5.454a.351.351 0 0 1 .619-.053c.393.612.85 1.18 1.359 1.689.508.508 1.076.965 1.689 1.359a.352.352 0 0 1-.053.62l-5.454 2.3a.36.36 0 0 1-.137.027z"/></symbol></defs></svg>