<svg aria-hidden="true" style="position: absolute; width: 0; height: 0; overflow: hidden;" version="1.1" xmlns="http://www.w3.org/2000/svg" xmlns:xlink="http://www.w3.org/1999/xlink">
<defs>
<symbol id="icon-search" viewBox="0 0 32 32">
<path fill="none" stroke="#fff" style="stroke: var(--color1, #fff)" stroke-linejoin="miter" stroke-linecap="butt" stroke-miterlimit="4" stroke-width="3.999" d="M24.081 13.040c0 6.098-4.943 11.041-11.041 11.041s-11.041-4.943-11.041-11.041c0-6.098 4.943-11.041 11.041-11.041s11.041 4.943 11.041 11.041z"></path>
<path fill="#fff" style="fill: var(--color1, #fff)" d="M20.095 22.914l0.020 0.040 8.458 8.438c0.78 0.8 2.039 0.8 2.819 0 0.8-0.78 0.8-2.039 0-2.819l-8.438-8.458-0.040-0.020-1.4-1.42-2.839 2.839 1.42 1.4z"></path>
</symbol>
<symbol id="icon-paper" viewBox="0 0 32 32">
<path fill="#fff" style="fill: var(--color1, #fff)" d="M31.799 10.908c-0.205-0.368-0.542-0.634-0.948-0.749l-3.561-1.010c-0.28-0.079-0.57 0.083-0.65 0.363s0.083 0.57 0.363 0.65l3.561 1.010c0.279 0.079 0.442 0.371 0.363 0.65l-4.305 15.172c-0.038 0.135-0.127 0.247-0.25 0.316s-0.265 0.085-0.395 0.048l-4.242-1.253h2.149c0.87 0 1.578-0.708 1.578-1.578v-19.373c0-0.87-0.708-1.578-1.578-1.578h-15.77c-0.87 0-1.578 0.708-1.578 1.578v19.374c0 0.87 0.708 1.578 1.578 1.578h2.325l-4.412 1.252c-0.135 0.038-0.277 0.022-0.4-0.047s-0.211-0.181-0.25-0.316l-4.305-15.172c-0.079-0.279 0.083-0.57 0.363-0.65l3.679-1.044c0.28-0.079 0.442-0.37 0.363-0.65s-0.37-0.442-0.65-0.363l-3.679 1.044c-0.837 0.238-1.325 1.112-1.088 1.949l4.305 15.172c0.115 0.406 0.381 0.742 0.749 0.948 0.238 0.133 0.501 0.201 0.767 0.201 0.145 0 0.29-0.020 0.433-0.061l7.98-2.264h3.728l7.663 2.264c0.143 0.041 0.288 0.061 0.433 0.061 0.266 0 0.528-0.068 0.767-0.201 0.368-0.205 0.634-0.542 0.749-0.948l4.305-15.172c0.115-0.406 0.065-0.832-0.14-1.2zM18.089 25.050h-9.974c-0.29 0-0.526-0.236-0.526-0.526v-19.374c0-0.29 0.236-0.526 0.526-0.526h15.771c0.29 0 0.526 0.236 0.526 0.526v19.374c0 0.29-0.236 0.526-0.526 0.526h-5.79c-0.002 0-0.004 0-0.006 0z"></path>
</symbol>
<symbol id="icon-scissors" viewBox="0 0 32 32">
<path fill="#fff" style="fill: var(--color1, #fff)" d="M27.69 25.071c-1.111-1.406-4.279-5.409-7.351-9.291l-0.905-1.143 3.181-4.021c0.244 0.033 0.491 0.051 0.742 0.051 1.664 0 3.207-0.744 4.233-2.041 0.886-1.12 1.28-2.515 1.109-3.929-0.172-1.417-0.89-2.682-2.023-3.562-0.956-0.742-2.101-1.135-3.313-1.135-1.664 0-3.207 0.744-4.233 2.041-0.886 1.12-1.28 2.515-1.108 3.928 0.056 0.465 0.173 0.914 0.342 1.338-0.396 0.501-1.254 1.585-2.364 2.988l-2.364-2.987c0.169-0.425 0.285-0.874 0.342-1.339 0.171-1.413-0.223-2.808-1.109-3.928-1.026-1.297-2.569-2.041-4.233-2.041-1.211 0-2.356 0.393-3.312 1.136-1.133 0.88-1.852 2.147-2.024 3.564-0.171 1.413 0.222 2.813 1.109 3.933 1.027 1.297 2.57 2.049 4.234 2.049 0 0 0 0 0 0 0.254 0 0.505-0.019 0.753-0.053l3.17 4.006c-3.331 4.21-7.034 8.89-8.256 10.435-1.118 1.414-1.347 3.043-0.661 4.711 0.499 1.214 1.316 2.017 1.35 2.051 0.111 0.108 0.259 0.167 0.412 0.167 0.013 0 0.026-0 0.038-0.001 0.167-0.011 0.321-0.092 0.425-0.223l10.127-12.799 10.126 12.799c0.104 0.131 0.258 0.212 0.425 0.223 0.013 0.001 0.026 0.001 0.038 0.001 0.153 0 0.302-0.060 0.412-0.167 0.035-0.034 0.851-0.837 1.35-2.051 0.686-1.668 0.457-3.297-0.662-4.711zM20.057 2.774c0.801-1.012 2.006-1.593 3.307-1.593 0.946 0 1.841 0.306 2.588 0.886 0.882 0.685 1.441 1.669 1.575 2.771 0.133 1.098-0.173 2.183-0.862 3.054-0.801 1.012-2.006 1.592-3.306 1.592-0.289 0-0.574-0.029-0.851-0.085-0.014-0.003-0.027-0.006-0.041-0.009-0.613-0.131-1.189-0.398-1.696-0.792-0.882-0.685-1.442-1.67-1.575-2.772-0.133-1.098 0.173-2.182 0.862-3.053zM8.643 9.502c-1.301 0-2.506-0.589-3.307-1.601-0.689-0.871-0.995-1.964-0.862-3.062 0.134-1.102 0.693-2.086 1.576-2.771 0.746-0.58 1.641-0.886 2.587-0.886 1.301 0 2.506 0.583 3.307 1.595 0.689 0.871 0.995 1.957 0.862 3.055-0.054 0.445-0.178 0.871-0.364 1.267-0.016 0.028-0.030 0.057-0.041 0.087-0.274 0.548-0.67 1.034-1.169 1.422-0.481 0.374-1.023 0.636-1.601 0.776-0.080 0-0.16 0.017-0.236 0.050-0.245 0.044-0.495 0.068-0.75 0.068 0 0-0 0-0 0zM10.64 10.298c0.466-0.188 0.908-0.441 1.315-0.757 0.413-0.321 0.769-0.694 1.066-1.106l2.226 2.813c-0.6 0.759-1.251 1.582-1.928 2.437l-2.679-3.386zM5.392 30.48c-0.656-0.878-1.669-2.764-0.156-4.677 1.253-1.584 5.115-6.464 8.509-10.754 0.028-0.029 0.053-0.060 0.074-0.094 2.22-2.806 4.23-5.347 5.163-6.525 0.296 0.41 0.652 0.781 1.064 1.101 0.409 0.318 0.853 0.571 1.322 0.757l-5.8 7.33c-0.024 0.025-0.045 0.052-0.063 0.080l-10.113 12.781zM26.608 30.48l-9.854-12.455 1.928-2.436 0.732 0.925c3.071 3.882 6.239 7.885 7.351 9.291 1.513 1.913 0.5 3.8-0.156 4.677z"></path>
<path fill="#fff" style="fill: var(--color1, #fff)" d="M16 15.408c0.426 0 0.772-0.346 0.772-0.772s-0.346-0.772-0.772-0.772c-0.426 0-0.772 0.346-0.772 0.772s0.345 0.772 0.772 0.772z"></path>
<path fill="#fff" style="fill: var(--color1, #fff)" d="M11.933 5.726c0.106-0.873-0.137-1.735-0.684-2.426-0.633-0.8-1.585-1.259-2.611-1.259-0.747 0-1.453 0.241-2.043 0.699-0.699 0.543-1.143 1.323-1.249 2.198-0.106 0.873 0.137 1.732 0.684 2.424 0.633 0.8 1.585 1.254 2.611 1.254 0 0 0 0 0 0 0.747 0 1.453-0.237 2.042-0.695 0.699-0.543 1.143-1.319 1.249-2.195zM9.959 6.988c-0.38 0.295-0.835 0.446-1.317 0.446 0 0-0 0-0 0-0.663 0-1.277-0.291-1.685-0.806-0.35-0.442-0.506-0.988-0.438-1.546 0.068-0.56 0.352-1.060 0.801-1.408 0.38-0.295 0.836-0.451 1.318-0.451 0.663 0 1.277 0.294 1.684 0.809 0.35 0.442 0.506 0.992 0.438 1.55-0.068 0.56-0.352 1.058-0.801 1.406z"></path>
<path fill="#fff" style="fill: var(--color1, #fff)" d="M23.363 8.615c0 0 0 0 0 0 0.747 0 1.453-0.237 2.042-0.695 0.699-0.543 1.143-1.319 1.249-2.195 0.106-0.873-0.137-1.735-0.685-2.426-0.633-0.8-1.585-1.259-2.611-1.259-0.747 0-1.453 0.241-2.043 0.699-0.699 0.543-1.143 1.323-1.249 2.198-0.106 0.873 0.137 1.732 0.684 2.424 0.633 0.8 1.585 1.254 2.611 1.254zM21.24 5.082c0.068-0.56 0.352-1.060 0.801-1.408 0.38-0.295 0.836-0.451 1.318-0.451 0.663 0 1.276 0.294 1.684 0.809 0.35 0.442 0.506 0.992 0.438 1.55-0.068 0.56-0.352 1.058-0.801 1.406-0.38 0.295-0.835 0.446-1.317 0.446 0 0-0 0-0 0-0.663 0-1.277-0.291-1.685-0.806-0.35-0.442-0.506-0.988-0.438-1.546z"></path>
</symbol>
<symbol id="icon-stone" viewBox="0 0 32 32">
<path fill="#fff" style="fill: var(--color1, #fff)" d="M19.858 6.806l-5.95 6.037-1.683 5.426 1.096 2.295 1.276 0.58 2.074-3.443 0.706-0.226 3.859 1.678 1.266-0.812 0.279-2.731 0.714 3.352-0.664 0.885 0.236 0.102 0.327 0.406 0.427 2.146 3.499-4.173 0.874 0.014 1.4 1.786-0.591-3.265-1.878-6.44-7.267-3.619zM7.726 7.556l-1.846 3.256-0.288 1.726 1.624-0.528 0.731 0.461 0.005 0.040 1.768 3.742 0.861-0.284 0.684 0.292 0.245 0.513 1.22-3.932-0.067-2.083-2.509-0.033-1.858-1.486 2.129 0.681 2.656-0.483 1.627 0.992 2.268-2.301c-0.174-0.074-0.351-0.147-0.536-0.22l-4.974 0.633-0.22-0.016-3.519-0.97zM23.309 9.832l2.941 4.126 0.132 3.907-1.58-3.731-4.083-3.775 2.59-0.527zM6.921 13.29l-4.015 1.305-1.044 4.91 3.175 0.349 0.037-0.446 2.354-2.294-0.507-3.822zM10.464 17.193l-2.277 0.751-1.978 1.927 1.412 1.929 3.583 0.109 1.031-1.010-1.771-3.706zM17.381 18.705l-2.769 4.597-0.002 3.571 6.079 0.764 2.765-1.221-1.104-5.55-4.969-2.16zM27.738 19.585l-2.928 3.492 0.018 0.111 4.072 0.868 1.611-0.933-2.773-3.538zM19.089 20.578l2.452 1.428 0.838 3.166-1.676 1.49-2.813-0.16 2.41-1.765 0.155-2.452-1.366-1.707zM4.191 23.943l-0.548 1.782 0.822 3.031 5.69-0.744 0.082-1.651-3.911-2-2.135-0.418z"></path>
</symbol>
<symbol id="icon-moon" viewBox="0 0 32 32">
<path d="M21.444 19.688c-0.113 0.006-0.219 0.006-0.331 0.006-1.819 0-3.531-0.706-4.819-1.994s-1.994-3-1.994-4.819c0-1.037 0.231-2.037 0.662-2.944 0.194-0.4 0.425-0.781 0.694-1.137-0.475 0.050-0.931 0.15-1.375 0.287-2.925 0.925-5.044 3.656-5.044 6.888 0 3.988 3.231 7.219 7.219 7.219 2.206 0 4.175-0.988 5.5-2.544 0.3-0.356 0.575-0.744 0.8-1.156-0.425 0.106-0.863 0.175-1.313 0.194z"></path>
</symbol>
<symbol id="icon-sun" viewBox="0 0 32 32">
<path d="M15.982 24.061c-4.455 0-8.079-3.624-8.079-8.079s3.624-8.079 8.079-8.079c4.455 0 8.079 3.624 8.079 8.079s-3.624 8.079-8.079 8.079z"></path>
<path d="M13.752 6.361c-0.103 0-0.201-0.045-0.269-0.125-0.084-0.1-0.106-0.238-0.057-0.359l2.23-5.483c0.054-0.132 0.182-0.219 0.325-0.219s0.272 0.087 0.325 0.219l2.23 5.483c0.049 0.121 0.027 0.259-0.057 0.359s-0.216 0.145-0.344 0.117c-1.421-0.309-2.89-0.309-4.31 0-0.025 0.006-0.050 0.008-0.074 0.008z"></path>
<path d="M15.982 31.788c-0.143 0-0.272-0.086-0.325-0.219l-2.23-5.483c-0.049-0.121-0.027-0.259 0.057-0.359s0.216-0.145 0.344-0.117c1.42 0.31 2.889 0.31 4.31 0 0.128-0.028 0.26 0.018 0.344 0.117s0.106 0.238 0.057 0.359l-2.23 5.483c-0.054 0.132-0.183 0.219-0.326 0.219z"></path>
<path d="M6.010 18.563c-0.045 0-0.090-0.008-0.132-0.026l-5.483-2.23c-0.132-0.054-0.219-0.183-0.219-0.326s0.087-0.272 0.219-0.325l5.483-2.23c0.12-0.049 0.259-0.027 0.359 0.057s0.145 0.216 0.117 0.344c-0.155 0.71-0.234 1.435-0.234 2.155s0.079 1.445 0.234 2.155c0.028 0.127-0.017 0.26-0.117 0.344-0.065 0.054-0.145 0.083-0.227 0.083z"></path>
<path d="M25.954 18.563c-0.081 0-0.162-0.028-0.226-0.083-0.1-0.084-0.145-0.216-0.117-0.344 0.155-0.71 0.233-1.436 0.233-2.155s-0.079-1.445-0.233-2.155c-0.028-0.127 0.017-0.26 0.117-0.344s0.237-0.106 0.359-0.057l5.483 2.23c0.132 0.054 0.219 0.182 0.219 0.325s-0.086 0.272-0.219 0.325l-5.483 2.23c-0.043 0.017-0.088 0.026-0.132 0.026z"></path>
<path d="M7.354 10.859c-0.010 0-0.020-0-0.030-0.001-0.13-0.011-0.243-0.093-0.294-0.213l-2.3-5.454c-0.056-0.132-0.026-0.284 0.075-0.385s0.254-0.13 0.385-0.075l5.454 2.3c0.12 0.051 0.202 0.164 0.213 0.293s-0.051 0.255-0.16 0.326c-0.612 0.393-1.18 0.85-1.689 1.359s-0.966 1.077-1.359 1.689c-0.065 0.101-0.177 0.162-0.295 0.162z"></path>
<path d="M26.91 27.261c-0.046 0-0.092-0.009-0.137-0.027l-5.454-2.3c-0.12-0.051-0.202-0.164-0.213-0.294s0.051-0.255 0.16-0.326c0.613-0.394 1.181-0.851 1.689-1.359v0c0.508-0.507 0.965-1.076 1.359-1.689 0.071-0.11 0.194-0.172 0.326-0.16 0.13 0.011 0.243 0.093 0.294 0.213l2.3 5.454c0.055 0.132 0.026 0.284-0.076 0.385-0.067 0.068-0.157 0.103-0.249 0.103z"></path>
<path d="M24.61 10.859c-0.119 0-0.23-0.060-0.296-0.161-0.394-0.613-0.851-1.181-1.359-1.689v0c-0.508-0.508-1.077-0.966-1.689-1.359-0.11-0.070-0.171-0.196-0.16-0.326s0.093-0.243 0.213-0.293l5.454-2.3c0.131-0.056 0.284-0.026 0.385 0.075s0.131 0.253 0.076 0.385l-2.3 5.454c-0.051 0.12-0.164 0.202-0.294 0.213-0.010 0.001-0.020 0.001-0.030 0.001z"></path>
<path d="M5.054 27.261c-0.091 0-0.181-0.036-0.248-0.103-0.101-0.101-0.131-0.253-0.075-0.385l2.3-5.454c0.051-0.12 0.164-0.202 0.293-0.213 0.13-0.015 0.255 0.051 0.326 0.16 0.393 0.612 0.85 1.18 1.359 1.689v0c0.508 0.508 1.076 0.965 1.689 1.359 0.11 0.071 0.171 0.196 0.16 0.326s-0.093 0.243-0.213 0.294l-5.454 2.3c-0.044 0.018-0.090 0.027-0.137 0.027z"></path>
</symbol>
</defs>
</svg>
